<svg xmlns="http://www.w3.org/2000/svg" width="1024" viewBox="0 0 768 768" height="1024" version="1.0"><defs><clipPath id="a"><path d="M216 353h182v233H216Zm0 0"/></clipPath><clipPath id="b"><path d="m308 586 92-233H216l92 233"/></clipPath><clipPath id="c"><path d="M262 437h42v149h-42Zm0 0"/></clipPath><clipPath id="d"><path d="M176 46h256v309H176Zm0 0"/></clipPath><clipPath id="e"><path d="M249 100h101v15H249Zm0 0"/></clipPath><clipPath id="f"><path d="M211 355s-33-27-16-54a70 70 0 0 1 16-108c-8-34 12-70 59-81 0 0 49-23 30-63a3 3 0 0 1 3-3c44 26 34 66 34 66 47 11 78 62 59 102 28 13 55 64 18 106 17 27-18 35-18 35" clip-rule="evenodd"/></clipPath><clipPath id="g"><path d="M191 301h234v29H191Zm0 0"/></clipPath><clipPath id="h"><path d="M211 355s-33-27-16-54a70 70 0 0 1 16-108c-8-34 12-70 59-81 0 0 49-23 30-63a3 3 0 0 1 3-3c44 26 34 66 34 66 47 11 78 62 59 102 28 13 55 64 18 106 17 27-18 35-18 35" clip-rule="evenodd"/></clipPath><clipPath id="i"><path d="M192 192h223v37H192Zm0 0"/></clipPath><clipPath id="j"><path d="M211 355s-33-27-16-54a70 70 0 0 1 16-108c-8-34 12-70 59-81 0 0 49-23 30-63a3 3 0 0 1 3-3c44 26 34 66 34 66 47 11 78 62 59 102 28 13 55 64 18 106 17 27-18 35-18 35" clip-rule="evenodd"/></clipPath></defs><path fill="#f44336" d="M192 0C86 0 0 86 0 192v384c0 106 86 192 192 192h384c106 0 192-86 192-192V192C768 86 682 0 576 0Zm0 0"/><g clip-path="url(#a)"><g clip-path="url(#b)"><path fill="#f9ad48" d="M216 353h182v233H216Zm0 0"/></g></g><g clip-path="url(#c)"><path fill="#f9ad48" d="M262 437h44v151h-44Zm0 0"/></g><g clip-path="url(#d)"><path fill="#fdfdfe" d="M211 355s-33-27-16-54a70 70 0 0 1 16-108c-8-34 12-70 59-81 0 0 49-23 30-63a3 3 0 0 1 3-3c44 26 34 66 34 66 47 11 78 62 59 102 28 13 55 64 18 106 17 27-18 35-18 35" fill-rule="evenodd"/></g><g clip-path="url(#e)"><g clip-path="url(#f)"><path fill="#f0f1f4" d="M337 112s-30-6-67 0-13-11-13-11 59-5 92 11c-2 5-12 0-12 0Zm0 0" fill-rule="evenodd"/></g></g><g clip-path="url(#g)"><g clip-path="url(#h)"><path fill="#f0f1f4" d="M191 310s37 8 94 10c68 2 139 9 139 9l-10-9s-46-6-129-10c-84-4-90-9-90-9Zm0 0" fill-rule="evenodd"/></g></g><g clip-path="url(#i)"><g clip-path="url(#j)"><path fill="#f0f1f4" d="M211 193s133 4 185 21c12-3 18 14 18 14-76-19-143-23-217-25l-5-10Zm0 0" fill-rule="evenodd"/></g></g><path d="M434 405h35c21 0 38-16 38-35 0-15-9-23-27-24h-50l-9 1c-21 0-26 3-35 17l-6 11-118 201v-96c0-47-2-71-9-90-9-27-43-47-79-47-73 0-136 62-136 135 0 50 40 90 89 90 36 0 61-16 61-39 0-12-12-23-25-23l-21 1c-21 0-38-16-38-36 0-34 31-67 63-67 12 0 23 8 27 22 4 9 4 16 5 54l4 164c1 16 2 23 7 30 5 9 18 16 30 16 19 0 30-9 44-33ZM326 633c0-9 1-16 5-23 3-6 8-12 13-15 6-4 12-6 19-6 6 0 12 2 16 4 5 3 8 6 11 10v-12h26v85h-26v-12c-3 4-6 7-11 10-4 2-10 3-16 3-7 0-13-1-19-5-5-4-10-9-13-16-4-6-5-14-5-23Zm64 0c0-6-2-11-6-15-3-4-8-6-13-6s-10 2-13 6c-4 4-6 9-6 15 0 7 2 12 6 16 3 4 8 6 13 6s10-2 13-6c4-4 6-9 6-16ZM487 590c10 0 18 3 24 10 6 6 9 15 9 26v50h-26v-46c0-6-2-10-5-14-3-3-7-4-12-4s-8 1-11 4c-3 4-5 8-5 14v46h-26v-85h26v11c3-4 6-7 11-9 4-2 9-3 15-3ZM605 569v73c0 11-3 20-9 26s-15 9-26 9-20-3-27-9c-7-7-10-16-10-28h26l2 10c2 3 5 4 8 4 4 0 6-1 8-3l2-9v-73ZM665 677c-7 0-14-1-21-4a31 31 0 0 1-21-29h28c1 4 2 7 5 9 2 2 5 3 9 3l9-2c2-2 3-5 3-8l-2-6-7-5-11-4-17-6c-4-2-8-5-11-9-4-5-5-10-5-17 0-10 3-18 11-23 7-6 16-9 28-9s21 3 29 9c7 5 11 13 11 23h-28c0-3-2-6-4-8s-5-3-9-3c-3 0-6 1-8 3l-2 7c0 3 1 6 4 8l16 6 17 7c4 2 8 5 11 9s5 10 5 16a31 31 0 0 1-19 29c-5 3-12 4-21 4Zm0 0" fill="#fff"/></svg>
